<svg xmlns="http://www.w3.org/2000/svg" xmlns:xlink="http://www.w3.org/1999/xlink" version="1.1" id="Layer_1" transform="matrix(1, 0, 0, 1, 0, 0)" x="0px" y="0px" viewBox="0 0 432.6 435.5" style="enable-background:new 0 0 432.6 435.5;" xml:space="preserve">
<style type="text/css">
	.st0{fill:#FFBC6C;}
	.st1{opacity:0.7;fill:#FFFFFF;enable-background:new    ;}
	.st2{fill:none;stroke:#262626;stroke-linecap:round;stroke-linejoin:round;}
	.st3{fill:#FFFFFF;}
	.st4{opacity:0.5;fill:#FFFFFF;enable-background:new    ;}
	.st5{clip-path:url(#SVGID_00000162350787927937668710000006197926669316746685_);}
	.st6{opacity:0.13;enable-background:new    ;}
	.st7{fill:#262626;stroke:#262626;stroke-linecap:round;stroke-linejoin:round;}
	.st8{fill:none;stroke:#FFFFFF;stroke-linecap:round;stroke-linejoin:round;}
	.st9{clip-path:url(#SVGID_00000023964612203427441760000008395022343768235448_);}
	.st10{clip-path:url(#SVGID_00000044884950394688957300000002486207358671890063_);}
	.st11{clip-path:url(#SVGID_00000035521245841208574740000017262298426337498501_);}
	.st12{fill:#FFFFFF;stroke:#262626;stroke-linecap:round;stroke-linejoin:round;}
	.st13{clip-path:url(#SVGID_00000145041209214810654860000017877289280343926145_);}
	.st14{clip-path:url(#SVGID_00000129915271811647446490000010853730427290117292_);}
	.st15{fill:#262626;}
	.st16{clip-path:url(#SVGID_00000116929240977719178700000005083405840026912391_);}
	.st17{opacity:0.53;fill:#FFFFFF;enable-background:new    ;}
	.st18{opacity:0.14;enable-background:new    ;}
	.st19{clip-path:url(#SVGID_00000000194374637877458050000006594569833571985812_);}
	.st20{clip-path:url(#SVGID_00000068659268776703801700000002892140253205680052_);}
	.st21{clip-path:url(#SVGID_00000005253421427154981950000008389766726787340701_);}
	.st22{clip-path:url(#SVGID_00000088106391677091832000000000651686223077606811_);}
	.st23{clip-path:url(#SVGID_00000155125507269888985550000009111151448164618682_);}
	.st24{clip-path:url(#SVGID_00000005987783132065528000000014091831438077948847_);}
	.st25{clip-path:url(#SVGID_00000034786653169960267830000013045027536021763482_);}
	.st26{fill:none;stroke:#262626;stroke-width:2;stroke-linecap:round;stroke-linejoin:round;}
	.st27{fill:none;stroke:#FFFFFF;stroke-width:0.75;stroke-linecap:round;stroke-linejoin:round;}
	.st28{clip-path:url(#SVGID_00000068660561660128404430000000319129886435467394_);}
	.st29{fill:#FFBC6C;stroke:#262626;stroke-linecap:round;stroke-linejoin:round;}
	.st30{fill:#331C00;}
</style>
<g id="Blogging-bro" transform="translate(-66.184 -70.72)">
	<g id="freepik--background-simple--inject-289" transform="translate(66.184 120.275)">
		<path id="Path_4005" class="st0" d="M71.6,335.1c40.7,22.5,115.8-3.4,172.5-0.1s100.4,29.6,154.6-22.2s33.9-103.8-1.8-142.5    S353.7,46.3,302,20.7S183.7-18.7,103.6,52.8C59.2,92.3,16.4,188.2,25.3,260.3C29.2,292.2,43.2,319.5,71.6,335.1z" fill="#000000"/>
		<path id="Path_4006" class="st1" d="M71.6,335.1c40.7,22.5,115.8-3.4,172.5-0.1s100.4,29.6,154.6-22.2s33.9-103.8-1.8-142.5    S353.7,46.3,302,20.7S183.7-18.7,103.6,52.8C59.2,92.3,16.4,188.2,25.3,260.3C29.2,292.2,43.2,319.5,71.6,335.1z" fill="#000000"/>
	</g>
	<g id="freepik--Background--inject-289" transform="translate(75.879 71.22)">
		<line id="Line_149" class="st2" x1="239.9" y1="41.1" x2="239.9" y2="306.8" fill="#000000"/>
		<path id="Path_4007" class="st2" d="M-9.7,391.7L245,309.5h167.6" fill="#000000"/>
		<path id="Path_4009" class="st3" d="M12.3,0v281.3L182,253.4V27.9L12.3,0z M16.7,5.3L102.9,19v78.3l-86.2-4.9L16.7,5.3z     M102.9,176.4l-86.2,4v-78.8l86.2,4V176.4z M110,105.9l69.2,3.2v63.7l-69.2,3.2L110,105.9z M179.2,31.2v70.5l-69.2-3.9V20.2    L179.2,31.2z M179.2,250.1l-69.2,11v-76.9l69.2-4V250.1z M16.7,276v-86.4l86.2-5v77.6L16.7,276z" fill="#000000"/>
	</g>
	<g id="freepik--Character--inject-289" transform="translate(95.289 195.803)">
		<ellipse id="Ellipse_65" class="st0" cx="221.1" cy="252.2" rx="135.8" ry="42.3" fill="#000000"/>
		<ellipse id="Ellipse_66" class="st4" cx="221.1" cy="252.2" rx="135.8" ry="42.3" fill="#000000"/>
		<path id="Path_4010" class="st0" d="M186.8,115.9c-9.7,14.6-29.1,23.9-36,28.4s-27.1,25.5-27.5,43.7s9.7,52.2,40.5,62    c30.8,9.7,85.8,14.6,115.4,1.6c29.6-12.9,41.3-28.7,41.7-60.3c0.4-31.6-17-97.6-37.3-113.4s-51-12.1-51-12.1    C210.7,69.7,196.6,101.3,186.8,115.9z" fill="#000000"/>
		<g>
			<defs fill="#000000">
				<path id="SVGID_1_" d="M186.8,115.9c-9.7,14.6-29.1,23.9-36,28.4s-27.1,25.5-27.5,43.7s9.7,52.2,40.5,62      c30.8,9.7,85.8,14.6,115.4,1.6c29.6-12.9,41.3-28.7,41.7-60.3c0.4-31.6-17-97.6-37.3-113.4s-51-12.1-51-12.1      C210.7,69.7,196.6,101.3,186.8,115.9z" fill="#000000"/>
			</defs>
			<clipPath id="SVGID_00000117674381500254369280000011010527640064330403_" fill="#000000">
				<use xlink:href="#SVGID_1_" style="overflow:visible;" fill="#000000"/>
			</clipPath>
			
				<g id="Group_932" transform="translate(52.897 65.282)" style="clip-path:url(#SVGID_00000117674381500254369280000011010527640064330403_);">
				<path id="Path_4011" class="st6" d="M110.9,184.6c30.8,9.7,85.8,14.6,115.4,1.6s41.3-28.7,41.7-60.3s-17-97.6-37.3-113.4      c-0.1-0.1-0.2-0.2-0.3-0.3c-3.8,0-7.6,0.6-11.3,1.6c-18.1,4.7-7.9,80.3-14.2,90.6s-20.5,9.5-28.4,18.9s-13.4,34.7-35.4,48      c-10.4,6.3-24.2,9.5-35.9,11.1C107.1,183.3,108.9,184,110.9,184.6z" fill="#000000"/>
			</g>
		</g>
		<path id="Path_4013" class="st2" d="M186.8,115.9c-9.7,14.6-29.1,23.9-36,28.4s-27.1,25.5-27.5,43.7s9.7,52.2,40.5,62    c30.8,9.7,85.8,14.6,115.4,1.6c29.6-12.9,41.3-28.7,41.7-60.3c0.4-31.6-17-97.6-37.3-113.4s-51-12.1-51-12.1    C210.7,69.7,196.6,101.3,186.8,115.9z" fill="#000000"/>
		<path id="Path_4014" class="st7" d="M228.5,77.9c-3-0.6-23.9-0.3-28.9,2.4s-37.7,76.3-37.7,76.3s19.3,1.4,32,4.3    s72.4,8.3,72.4,8.3c0.1-3.6,0.4-7.1,0.9-10.6c0.6-3,1.2-9.2,7.1-11.5c4-1.4,8.3-1.6,12.4-0.6c0,0-14.8-55.5-18.3-59.1    s-23.6-7.4-23.6-7.4S231.4,78.5,228.5,77.9z" fill="#000000"/>
		<line id="Line_150" class="st8" x1="259.5" y1="107.1" x2="264.5" y2="148.1" fill="#000000"/>
		<line id="Line_151" class="st8" x1="253.9" y1="109.2" x2="260.7" y2="118" fill="#000000"/>
		<path id="Path_4015" class="st8" d="M208.4,117.1c12.7,0,31.9,6.2,31.9,6.2" fill="#000000"/>
		<path id="Path_4016" class="st8" d="M210.8,131.6c1.2-5.9,10.3-10.9,10.3-10.9c-0.8-0.8-1.2-1.8-1.2-3c0.3-1.5,3.5-1.5,3.5-1.5    l-1.3-9.8" fill="#000000"/>
		<path id="Path_4017" class="st3" d="M221.7,70.3c-4.1,3.2-3.3,7.7-6.1,12s-5.3,5.7-4.5,7.3s4.3-4.3,4.5-2.8s0,6.1,1.4,8.3    s7.1,10.4,7.1,10.4s2.6-2,5.3-3.9s5.9-5.5,5.9-8.1s0.8-4.1,2.2-4.5s5.5,3.7,6.7,6.5s2.6,6.5,2.6,4.1s1.2-21.7-0.4-24.4    s-12.6-6.3-12.6-6.3C230.5,68.1,225.8,67.1,221.7,70.3z" fill="#000000"/>
		<g>
			<defs fill="#000000">
				<path id="SVGID_00000011011859133801814630000013933762052579667876_" d="M221.7,70.3c-4.1,3.2-3.3,7.7-6.1,12s-5.3,5.7-4.5,7.3      s4.3-4.3,4.5-2.8s0,6.1,1.4,8.3s7.1,10.4,7.1,10.4s2.6-2,5.3-3.9s5.9-5.5,5.9-8.1s0.8-4.1,2.2-4.5s5.5,3.7,6.7,6.5      s2.6,6.5,2.6,4.1s1.2-21.7-0.4-24.4s-12.6-6.3-12.6-6.3C230.5,68.1,225.8,67.1,221.7,70.3z" fill="#000000"/>
			</defs>
			<clipPath id="SVGID_00000085969608448514989210000014000177571902763912_" fill="#000000">
				<use xlink:href="#SVGID_00000011011859133801814630000013933762052579667876_" style="overflow:visible;" fill="#000000"/>
			</clipPath>
			
				<g id="Group_933" transform="translate(126.664 68.105)" style="clip-path:url(#SVGID_00000085969608448514989210000014000177571902763912_);">
				<path id="Path_4018" class="st0" d="M107,0.8h-0.2L104.3,29c0,0,1.5-10.9,5.3-12.4c3-1.2,8.2,5,10.7,8.2      c0.2-6.7,0.4-15.9-0.6-17.7C118.1,4.3,107,0.8,107,0.8z" fill="#000000"/>
				<path id="Path_4019" class="st4" d="M107,0.8h-0.2L104.3,29c0,0,1.5-10.9,5.3-12.4c3-1.2,8.2,5,10.7,8.2      c0.2-6.7,0.4-15.9-0.6-17.7C118.1,4.3,107,0.8,107,0.8z" fill="#000000"/>
			</g>
		</g>
		<path id="Path_4021" class="st2" d="M221.7,70.3c-4.1,3.2-3.3,7.7-6.1,12s-5.3,5.7-4.5,7.3s4.3-4.3,4.5-2.8s0,6.1,1.4,8.3    s7.1,10.4,7.1,10.4s2.6-2,5.3-3.9s5.9-5.5,5.9-8.1s0.8-4.1,2.2-4.5s5.5,3.7,6.7,6.5s2.6,6.5,2.6,4.1s1.2-21.7-0.4-24.4    s-12.6-6.3-12.6-6.3C230.5,68.1,225.8,67.1,221.7,70.3z" fill="#000000"/>
		<path id="Path_4022" class="st3" d="M276.3,162.9c10.9,3.5,16.5,2.1,18,0.3c1.5-1.8-0.6-14.5-0.9-16.8c-0.3-2.4-10.3-9.2-18.6-8.3    c-8.3,0.9-15.1,10.6-15.1,10.6C261,154.9,265.4,159.4,276.3,162.9z" fill="#000000"/>
		<g>
			<defs fill="#000000">
				<path id="SVGID_00000139292205218743627710000017062793982826763668_" d="M276.3,162.9c10.9,3.5,16.5,2.1,18,0.3      c1.5-1.8-0.6-14.5-0.9-16.8c-0.3-2.4-10.3-9.2-18.6-8.3c-8.3,0.9-15.1,10.6-15.1,10.6C261,154.9,265.4,159.4,276.3,162.9z" fill="#000000"/>
			</defs>
			<clipPath id="SVGID_00000159453659491639374330000001705246158903723157_" fill="#000000">
				<use xlink:href="#SVGID_00000139292205218743627710000017062793982826763668_" style="overflow:visible;" fill="#000000"/>
			</clipPath>
			
				<g id="Group_934" transform="translate(78.923 138.024)" style="clip-path:url(#SVGID_00000159453659491639374330000001705246158903723157_);">
				<path id="Path_4023" class="st0" d="M209.7,27c3.1-0.1,5-0.9,5.8-1.9c1.5-1.8-0.6-14.5-0.9-16.8c-0.2-1.9-6.8-6.7-13.7-8      c2.2,1.2,7.7,4.4,7.4,6c-0.5,2-10.3-3.5-7.4,0s7.6,7.1,8.8,9.5s-1.2,9.1-1.2,9.1S208.9,25.8,209.7,27z" fill="#000000"/>
				<path id="Path_4024" class="st4" d="M209.7,27c3.1-0.1,5-0.9,5.8-1.9c1.5-1.8-0.6-14.5-0.9-16.8c-0.2-1.9-6.8-6.7-13.7-8      c2.2,1.2,7.7,4.4,7.4,6c-0.5,2-10.3-3.5-7.4,0s7.6,7.1,8.8,9.5s-1.2,9.1-1.2,9.1S208.9,25.8,209.7,27z" fill="#000000"/>
			</g>
		</g>
		<path id="Path_4026" class="st2" d="M276.3,162.9c10.9,3.5,16.5,2.1,18,0.3c1.5-1.8-0.6-14.5-0.9-16.8c-0.3-2.4-10.3-9.2-18.6-8.3    c-8.3,0.9-15.1,10.6-15.1,10.6C261,154.9,265.4,159.4,276.3,162.9z" fill="#000000"/>
		<path id="Path_4027" class="st3" d="M268.1,144.6c-6.2-2.4-47.6-12.7-49.3-12.7s-16.2,4.7-17.1,6.8s-7.4,11.8-5.3,11.8    s6.2-6.5,6.2-6.5c2.9,0,5.8-0.3,8.6-0.9c3-0.9,10-3.2,12.1-2.4s19.8,11.2,27.5,15.7c7.7,4.4,19.5,14.8,27.8,14.8    c8.3,0,16.2-2.1,15.9-6.8c-0.4-8.6-11.5-13-11.5-13S274.3,147,268.1,144.6z" fill="#000000"/>
		<g>
			<defs fill="#000000">
				<path id="SVGID_00000174570358929972164930000014266206727967542955_" d="M268.1,144.6c-6.2-2.4-47.6-12.7-49.3-12.7      s-16.2,4.7-17.1,6.8s-7.4,11.8-5.3,11.8s6.2-6.5,6.2-6.5c2.9,0,5.8-0.3,8.6-0.9c3-0.9,10-3.2,12.1-2.4s19.8,11.2,27.5,15.7      c7.7,4.4,19.5,14.8,27.8,14.8c8.3,0,16.2-2.1,15.9-6.8c-0.4-8.6-11.5-13-11.5-13S274.3,147,268.1,144.6z" fill="#000000"/>
			</defs>
			<clipPath id="SVGID_00000062165667611390497220000000270627969093449404_" fill="#000000">
				<use xlink:href="#SVGID_00000174570358929972164930000014266206727967542955_" style="overflow:visible;" fill="#000000"/>
			</clipPath>
			
				<g id="Group_935" transform="translate(79.444 131.901)" style="clip-path:url(#SVGID_00000062165667611390497220000000270627969093449404_);">
				<path id="Path_4028" class="st0" d="M166.5,21.8l4.7,2.7c7.7,4.4,19.5,14.8,27.8,14.8s16.2-2.1,15.9-6.8      c-0.4-8.6-11.5-13-11.5-13s-8.6-4.4-14.8-6.8S141.1,0,139.3,0c0,0,24,9.8,40.9,18.3C192.9,24.6,177.8,23.2,166.5,21.8z" fill="#000000"/>
				<path id="Path_4029" class="st4" d="M166.5,21.8l4.7,2.7c7.7,4.4,19.5,14.8,27.8,14.8s16.2-2.1,15.9-6.8      c-0.4-8.6-11.5-13-11.5-13s-8.6-4.4-14.8-6.8S141.1,0,139.3,0c0,0,24,9.8,40.9,18.3C192.9,24.6,177.8,23.2,166.5,21.8z" fill="#000000"/>
			</g>
		</g>
		<path id="Path_4031" class="st2" d="M268.1,144.6c-6.2-2.4-47.6-12.7-49.3-12.7s-16.2,4.7-17.1,6.8s-7.4,11.8-5.3,11.8    s6.2-6.5,6.2-6.5c2.9,0,5.8-0.3,8.6-0.9c3-0.9,10-3.2,12.1-2.4s19.8,11.2,27.5,15.7c7.7,4.4,19.5,14.8,27.8,14.8    c8.3,0,16.2-2.1,15.9-6.8c-0.4-8.6-11.5-13-11.5-13S274.3,147,268.1,144.6z" fill="#000000"/>
		<path id="Path_4032" class="st12" d="M196.4,85.7c-0.3-1.4-1.6-2.5-3-2.4l-59.8,1.8c-0.2,0-0.3,0-0.5,0.1    c-1.6,0.3-2.7,1.9-2.4,3.5l9.7,48l65-0.3L196.4,85.7L196.4,85.7z" fill="#000000"/>
		<path id="Path_4033" class="st3" d="M140.5,136.6l24.3,20l72.4,2.1l-31.6-22.4L140.5,136.6z" fill="#000000"/>
		<g>
			<defs fill="#000000">
				<polygon id="SVGID_00000156556489095458956170000002096773459610354304_" points="140.5,136.6 164.7,156.6 237.1,158.7       205.4,136.3     " fill="#000000"/>
			</defs>
			<clipPath id="SVGID_00000126321175742549561520000007195542211620517274_" fill="#000000">
				<use xlink:href="#SVGID_00000156556489095458956170000002096773459610354304_" style="overflow:visible;" fill="#000000"/>
			</clipPath>
			
				<g id="Group_936" transform="translate(136.712 136.331)" style="clip-path:url(#SVGID_00000126321175742549561520000007195542211620517274_);">
				<path id="Path_4034" class="st0" d="M3.8,0.3l24.3,20l72.4,2.1L68.7,0L3.8,0.3z" fill="#000000"/>
				<path id="Path_4035" class="st4" d="M3.8,0.3l24.3,20l72.4,2.1L68.7,0L3.8,0.3z" fill="#000000"/>
			</g>
		</g>
		<path id="Path_4037" class="st2" d="M140.5,136.6l24.3,20l72.4,2.1l-31.6-22.4L140.5,136.6z" fill="#000000"/>
		<path id="Path_4038" class="st3" d="M178.3,173.2c-9.5-5.9-41.9-11.8-41.9-11.8c3.4,8.9,5.4,18.3,5.9,27.8    c0.6,15.1,8.9,48.1,13.9,57s17.4,14.8,18.6,19.2s-6.8,22.2-26,34.6s-25.7,10.3-31.3,9.2s-6.5-8,2.4-13.6s18.9-21.3,19.2-26.6    s-10-33.4-18.3-48.7s-20.7-75.6-21.3-87.1s4.7-12.7,30.4-5s51.7,30.4,51.7,30.4L178.3,173.2z" fill="#000000"/>
		<g>
			<defs fill="#000000">
				<path id="SVGID_00000113313555406880105080000008830978589012131747_" d="M178.3,173.2c-9.5-5.9-41.9-11.8-41.9-11.8      c3.4,8.9,5.4,18.3,5.9,27.8c0.6,15.1,8.9,48.1,13.9,57s17.4,14.8,18.6,19.2s-6.8,22.2-26,34.6s-25.7,10.3-31.3,9.2      s-6.5-8,2.4-13.6s18.9-21.3,19.2-26.6s-10-33.4-18.3-48.7s-20.7-75.6-21.3-87.1s4.7-12.7,30.4-5s51.7,30.4,51.7,30.4      L178.3,173.2z" fill="#000000"/>
			</defs>
			<clipPath id="SVGID_00000056387541650442626650000004516212398889935014_" fill="#000000">
				<use xlink:href="#SVGID_00000113313555406880105080000008830978589012131747_" style="overflow:visible;" fill="#000000"/>
			</clipPath>
			
				<g id="Group_937" transform="translate(192.274 123.184)" style="clip-path:url(#SVGID_00000056387541650442626650000004516212398889935014_);">
				<path id="Path_4039" class="st0" d="M-14,50.1c-9.5-5.9-41.9-11.8-41.9-11.8c3.4,8.9,5.4,18.3,5.9,27.8      c0.6,15.1,8.9,48.1,13.9,57s17.4,14.8,18.6,19.2s-6.8,22.2-26,34.6s-25.7,10.3-31.3,9.2s-6.5-8,2.4-13.6s18.9-21.3,19.2-26.6      s-10-33.4-18.3-48.7S-92.3,21.4-92.9,9.9s4.7-12.7,30.4-5s51.7,30.4,51.7,30.4L-14,50.1z" fill="#000000"/>
				<path id="Path_4040" class="st4" d="M-14,50.1c-9.5-5.9-41.9-11.8-41.9-11.8c3.4,8.9,5.4,18.3,5.9,27.8      c0.6,15.1,8.9,48.1,13.9,57s17.4,14.8,18.6,19.2s-6.8,22.2-26,34.6s-25.7,10.3-31.3,9.2s-6.5-8,2.4-13.6s18.9-21.3,19.2-26.6      s-10-33.4-18.3-48.7S-92.3,21.4-92.9,9.9s4.7-12.7,30.4-5s51.7,30.4,51.7,30.4L-14,50.1z" fill="#000000"/>
			</g>
		</g>
		<path id="Path_4042" class="st2" d="M178.3,173.2c-9.5-5.9-41.9-11.8-41.9-11.8c3.4,8.9,5.4,18.3,5.9,27.8    c0.6,15.1,8.9,48.1,13.9,57s17.4,14.8,18.6,19.2s-6.8,22.2-26,34.6s-25.7,10.3-31.3,9.2s-6.5-8,2.4-13.6s18.9-21.3,19.2-26.6    s-10-33.4-18.3-48.7s-20.7-75.6-21.3-87.1s4.7-12.7,30.4-5s51.7,30.4,51.7,30.4L178.3,173.2z" fill="#000000"/>
		<path id="Path_4043" class="st12" d="M142.2,189.2c-0.5-9.5-2.5-18.9-5.9-27.8c0,0,32.5,5.9,41.9,11.8l3.2-14.8    c0,0-26-22.7-51.7-30.4s-31-6.5-30.4,5s13,71.8,21.3,87.1c6.4,12.5,11.8,25.4,16,38.8c1.3-1.4,2.6-2.7,4-3.9    c4.7-3.9,10.5-6.3,16.6-6.9c-0.5-0.6-0.9-1.3-1.3-1.9C151.1,237.3,142.8,204.3,142.2,189.2z" fill="#000000"/>
		<path id="Path_4044" class="st15" d="M142.2,189.2c-0.5-9.5-2.5-18.9-5.9-27.8c0,0,32.5,5.9,41.9,11.8l3.2-14.8    c0,0-26-22.7-51.7-30.4s-31-6.5-30.4,5s-0.5,58.9,18.1,84.4c7.2,9.9,13.6,33.9,19.2,41.5c1.3-1.4,2.6-2.7,4-3.9    c4.7-3.9,10.5-6.3,16.6-6.9c-0.5-0.6-0.9-1.3-1.3-1.9C151.1,237.3,142.8,204.3,142.2,189.2z" fill="#000000"/>
		<g>
			<defs fill="#000000">
				<path id="SVGID_00000113338324998758318400000015035560902950428084_" d="M142.2,189.2c-0.5-9.5-2.5-18.9-5.9-27.8      c0,0,32.5,5.9,41.9,11.8l3.2-14.8c0,0-26-22.7-51.7-30.4s-31-6.5-30.4,5s-0.5,58.9,18.1,84.4c7.2,9.9,13.6,33.9,19.2,41.5      c1.3-1.4,2.6-2.7,4-3.9c4.7-3.9,10.5-6.3,16.6-6.9c-0.5-0.6-0.9-1.3-1.3-1.9C151.1,237.3,142.8,204.3,142.2,189.2z" fill="#000000"/>
			</defs>
			<clipPath id="SVGID_00000014603582376597798370000009526145437669760392_" fill="#000000">
				<use xlink:href="#SVGID_00000113338324998758318400000015035560902950428084_" style="overflow:visible;" fill="#000000"/>
			</clipPath>
			
				<g id="Group_938" transform="translate(192.274 123.184)" style="clip-path:url(#SVGID_00000014603582376597798370000009526145437669760392_);">
				<path id="Path_4045" class="st17" d="M-50,66c-0.5-9.5-2.5-18.9-5.9-27.8c0,0,32.5,5.9,41.9,11.8l3.2-14.8      c0,0-26-22.7-51.7-30.4s-31-6.5-30.4,5s-0.5,58.9,18.1,84.4c7.2,9.9,13.6,33.9,19.2,41.5c1.3-1.4,2.6-2.7,4-3.9      c4.7-3.9,10.5-6.3,16.6-6.9c-0.5-0.6-0.9-1.3-1.3-1.9C-41.2,114.2-49.4,81.1-50,66z" fill="#000000"/>
				<path id="Path_4046" class="st18" d="M-62.7,81c3.6,13.7,11.2,31.3,18.3,46.4c3-1.3,6.2-2.1,9.5-2.4c-0.5-0.6-0.9-1.3-1.3-1.9      c-5-8.9-13.3-41.9-13.9-57c-0.5-9.5-2.5-18.9-5.9-27.8c0,0,32.5,5.9,41.9,11.8l3.2-14.8c0,0-1.5-1.3-4.2-3.5      c-19.3-8.3-65-27.7-65.4-23.5C-81,13.7-69.2,56.2-62.7,81z" fill="#000000"/>
				<path id="Path_4047" class="st2" d="M-72.5,12.9c7.7,7.4,16.5,25.4,16.5,25.4" fill="#000000"/>
			</g>
		</g>
		<path id="Path_4049" class="st2" d="M142.2,189.2c-0.5-9.5-2.5-18.9-5.9-27.8c0,0,32.5,5.9,41.9,11.8l3.2-14.8    c0,0-26-22.7-51.7-30.4s-31-6.5-30.4,5s-0.5,58.9,18.1,84.4c7.2,9.9,13.6,33.9,19.2,41.5c1.3-1.4,2.6-2.7,4-3.9    c4.7-3.9,10.5-6.3,16.6-6.9c-0.5-0.6-0.9-1.3-1.3-1.9C151.1,237.3,142.8,204.3,142.2,189.2z" fill="#000000"/>
		<path id="Path_4050" class="st7" d="M220.5,182.3c0.7-5.9-2.4-11.6-7.7-14.2c-9.3-4.9-33.6,4-20.2,8.9    C201.5,180.1,210.9,181.9,220.5,182.3L220.5,182.3z" fill="#000000"/>
		<path id="Path_4051" class="st3" d="M204,141.4c-11.5-1.2-19.2,3-24.5,12.4s-6.5,34.6-20.7,54S118,252.7,118,252.7    c-1.7-0.5-3.4-1.2-5-2.1c-3-1.5-35.4-23-39-26s-7.1-6.5-8.9-2.4c-1.8,4.1,2.7,22.7,7.7,31.6c5,8.9,26.6,35.1,28.6,34.9    s10.9-6.8,15.7-10.3s35.4-25.7,44.6-31.6s32.2-28.9,37.2-38.4s5.3-35.4,5.3-35.4s27.1,16,41.8,16.6c14.8,0.6,28.7-9.3,25.5-15.2    s-12.7-11.2-12.7-11.2C239.4,148.7,215.5,142.5,204,141.4z" fill="#000000"/>
		<g>
			<defs fill="#000000">
				<path id="SVGID_00000121263287310527724440000014563975128853839251_" d="M204,141.4c-11.5-1.2-19.2,3-24.5,12.4      s-6.5,34.6-20.7,54S118,252.7,118,252.7c-1.7-0.5-3.4-1.2-5-2.1c-3-1.5-35.4-23-39-26s-7.1-6.5-8.9-2.4      c-1.8,4.1,2.7,22.7,7.7,31.6s26.6,35.1,28.6,34.9s10.9-6.8,15.7-10.3s35.4-25.7,44.6-31.6s32.2-28.9,37.2-38.4      s5.3-35.4,5.3-35.4s27.1,16,41.8,16.6c14.8,0.6,28.7-9.3,25.5-15.2s-12.7-11.2-12.7-11.2C239.4,148.7,215.5,142.5,204,141.4z" fill="#000000"/>
			</defs>
			<clipPath id="SVGID_00000114759861621730473510000003549300148753447324_" fill="#000000">
				<use xlink:href="#SVGID_00000121263287310527724440000014563975128853839251_" style="overflow:visible;" fill="#000000"/>
			</clipPath>
			
				<g id="Group_939" transform="translate(101.717 141.155)" style="clip-path:url(#SVGID_00000114759861621730473510000003549300148753447324_);">
				<path id="Path_4052" class="st0" d="M25.6,118l-33.8,21.8c4,4.6,7.2,7.9,8,7.8c2.1-0.3,10.9-6.8,15.7-10.3      c2-1.5,8.9-6.5,16.8-12.2L25.6,118z" fill="#000000"/>
				<path id="Path_4053" class="st4" d="M25.6,118l-33.8,21.8c4,4.6,7.2,7.9,8,7.8c2.1-0.3,10.9-6.8,15.7-10.3      c2-1.5,8.9-6.5,16.8-12.2L25.6,118z" fill="#000000"/>
			</g>
		</g>
		<path id="Path_4055" class="st2" d="M204,141.4c-11.5-1.2-19.2,3-24.5,12.4s-6.5,34.6-20.7,54S118,252.7,118,252.7    c-1.7-0.5-3.4-1.2-5-2.1c-3-1.5-35.4-23-39-26s-7.1-6.5-8.9-2.4c-1.8,4.1,2.7,22.7,7.7,31.6c5,8.9,26.6,35.1,28.6,34.9    s10.9-6.8,15.7-10.3s35.4-25.7,44.6-31.6s32.2-28.9,37.2-38.4s5.3-35.4,5.3-35.4s27.1,16,41.8,16.6c14.8,0.6,28.7-9.3,25.5-15.2    s-12.7-11.2-12.7-11.2C239.4,148.7,215.5,142.5,204,141.4z" fill="#000000"/>
		<path id="Path_4056" class="st15" d="M130.4,268.7c11-7.9,25.5-18.2,31.3-21.9c9.2-5.9,32.2-28.9,37.2-38.4s5.3-35.4,5.3-35.4    s27.1,15.3,41.8,16.6c20.6,1.9,32.4-13,29.1-18.9S261.3,159,261.3,159c-25.3-14.3-45.9-16.5-57.4-17.7s-19.5-0.5-24.8,9    s-6.8,18.5-20.3,45c-9.2,18.1-32.7,49.5-38.9,55.6C122.8,253.4,127.7,258.8,130.4,268.7z" fill="#000000"/>
		<g>
			<defs fill="#000000">
				<path id="SVGID_00000019650570157199683810000005505603463578471077_" d="M130.4,268.7c11-7.9,25.5-18.2,31.3-21.9      c9.2-5.9,32.2-28.9,37.2-38.4s5.3-35.4,5.3-35.4s27.1,15.3,41.8,16.6c20.6,1.9,32.4-13,29.1-18.9S261.3,159,261.3,159      c-25.3-14.3-45.9-16.5-57.4-17.7s-19.5-0.5-24.8,9s-6.8,18.5-20.3,45c-9.2,18.1-32.7,49.5-38.9,55.6      C122.8,253.4,127.7,258.8,130.4,268.7z" fill="#000000"/>
			</defs>
			<clipPath id="SVGID_00000159464329115404057880000000336702120134668434_" fill="#000000">
				<use xlink:href="#SVGID_00000019650570157199683810000005505603463578471077_" style="overflow:visible;" fill="#000000"/>
			</clipPath>
			
				<g id="Group_940" transform="translate(98.058 140.922)" style="clip-path:url(#SVGID_00000159464329115404057880000000336702120134668434_);">
				<path id="Path_4057" class="st17" d="M32.3,127.8c11-7.9,25.5-18.2,31.3-21.9c9.2-5.9,32.2-28.9,37.2-38.4s5.3-35.4,5.3-35.4      s27.1,15.3,41.8,16.6c20.6,1.9,32.4-13,29.1-18.9s-13.9-11.7-13.9-11.7C138,3.8,117.3,1.6,105.9,0.4S86.4,0,81,9.4      s-6.8,18.5-20.3,45C51.5,72.5,28,103.9,21.8,110C24.7,112.5,29.6,117.9,32.3,127.8z" fill="#000000"/>
				<path id="Path_4058" class="st18" d="M28.2,117.9c1.8,3.1,3.2,6.4,4.1,9.9c11-7.9,25.5-18.2,31.3-21.9      c9.2-5.9,32.2-28.9,37.2-38.4s5.3-35.4,5.3-35.4s27.1,15.3,41.8,16.6c16.5,1.5,27.4-7.8,29.3-14.6c-16.6-8-49.8-23.3-67.9-27.6      C84.7,0.6,90,45.5,81.2,68C76.2,80.5,50.3,101.7,28.2,117.9z" fill="#000000"/>
				<line id="Line_152" class="st2" x1="107.1" y1="16.7" x2="106.2" y2="32" fill="#000000"/>
			</g>
		</g>
		<path id="Path_4060" class="st2" d="M130.4,268.7c11-7.9,25.5-18.2,31.3-21.9c9.2-5.9,32.2-28.9,37.2-38.4s5.3-35.4,5.3-35.4    s27.1,15.3,41.8,16.6c20.6,1.9,32.4-13,29.1-18.9S261.3,159,261.3,159c-25.3-14.3-45.9-16.5-57.4-17.7s-19.5-0.5-24.8,9    s-6.8,18.5-20.3,45c-9.2,18.1-32.7,49.5-38.9,55.6C122.8,253.4,127.7,258.8,130.4,268.7z" fill="#000000"/>
		<path id="Path_4061" class="st7" d="M119,277l-8.9-13.4c0,0,5-3.5,6.2-6.2c0.7-1.7-0.3-4.2-1.2-5.8c-0.6-0.3-1.3-0.6-2.1-1    c-3-1.5-35.4-23-39-26s-7.1-6.5-8.9-2.4s2.7,22.7,7.7,31.6s26.6,35.1,28.6,34.9s10.9-6.8,15.7-10.3L119,277z" fill="#000000"/>
		<path id="Path_4062" class="st3" d="M101.5,288.7c1.8-0.7,3.5-1.6,5-2.8c-8.4-8.8-25.3-26.9-30.7-37.1    c-6.1-11.5-7.3-22.1-6.1-27.6c-1.9-1.2-3.5-1.3-4.5,1.1c-1.8,4.1,2.7,22.7,7.7,31.6C77.8,262.7,99.4,289,101.5,288.7z" fill="#000000"/>
		<g>
			<defs fill="#000000">
				<path id="SVGID_00000148646831056657886200000018426802300643036553_" d="M101.5,288.7c1.8-0.7,3.5-1.6,5-2.8      c-8.4-8.8-25.3-26.9-30.7-37.1c-6.1-11.5-7.3-22.1-6.1-27.6c-1.9-1.2-3.5-1.3-4.5,1.1c-1.8,4.1,2.7,22.7,7.7,31.6      S99.4,289,101.5,288.7z" fill="#000000"/>
			</defs>
			<clipPath id="SVGID_00000084504447096989649230000010592790150545621378_" fill="#000000">
				<use xlink:href="#SVGID_00000148646831056657886200000018426802300643036553_" style="overflow:visible;" fill="#000000"/>
			</clipPath>
			
				<g id="Group_941" transform="translate(267.293 220.41)" style="clip-path:url(#SVGID_00000084504447096989649230000010592790150545621378_);">
				<path id="Path_4063" class="st0" d="M-166,68.3c0.1,0,0.2,0,0.2,0c0.1,0,0.3-0.1,0.4-0.1l0.2-0.1c0.1,0,0.2-0.1,0.4-0.2l0.2-0.1      l0.4-0.2l0.3-0.2l0.3-0.2l1.2-0.7l0,0l0.7-0.5l0.1-0.1l0.8-0.5l0,0c-2.2-2.3-4.9-5.1-7.8-8.3l-5.2,3.3l0,0l0.7,0.8v0.1      c0.7,0.8,1.3,1.5,2,2.2l0.2,0.2l0.5,0.6l0.1,0.1l0.8,0.9l0.3,0.3l0.3,0.3l0.4,0.4l0.3,0.3l0.5,0.4l0.2,0.2l0.3,0.3l0.1,0.1      c0.1,0.1,0.3,0.2,0.4,0.3l0.1,0.1L-166,68.3L-166,68.3z" fill="#000000"/>
				<path id="Path_4064" class="st4" d="M-166,68.3c0.1,0,0.2,0,0.2,0c0.1,0,0.3-0.1,0.4-0.1l0.2-0.1c0.1,0,0.2-0.1,0.4-0.2l0.2-0.1      l0.4-0.2l0.3-0.2l0.3-0.2l1.2-0.7l0,0l0.7-0.5l0.1-0.1l0.8-0.5l0,0c-2.2-2.3-4.9-5.1-7.8-8.3l-5.2,3.3l0,0l0.7,0.8v0.1      c0.7,0.8,1.3,1.5,2,2.2l0.2,0.2l0.5,0.6l0.1,0.1l0.8,0.9l0.3,0.3l0.3,0.3l0.4,0.4l0.3,0.3l0.5,0.4l0.2,0.2l0.3,0.3l0.1,0.1      c0.1,0.1,0.3,0.2,0.4,0.3l0.1,0.1L-166,68.3L-166,68.3z" fill="#000000"/>
			</g>
		</g>
		<path id="Path_4066" class="st2" d="M101.5,288.7c1.8-0.7,3.5-1.6,5-2.8c-8.4-8.8-25.3-26.9-30.7-37.1    c-6.1-11.5-7.3-22.1-6.1-27.6c-1.9-1.2-3.5-1.3-4.5,1.1c-1.8,4.1,2.7,22.7,7.7,31.6C77.8,262.7,99.4,289,101.5,288.7z" fill="#000000"/>
		<path id="Path_4067" class="st7" d="M117.5,309.1c5.6,1.2,12.1,3.2,31.3-9.2s27.2-30.1,26-34.6c-0.6-2.4-4.6-5.2-8.9-8.8    c-3.7,0.2-7.4,1.3-10.6,3.2c-4,2.8-7.9,5.9-11.5,9.2c-1.4-1.1-3.1-1.7-4.9-1.7c0.1,0.6,0.2,1.2,0.1,1.7    c-0.3,5.3-10.3,21-19.2,26.6C110.9,301.1,111.9,307.9,117.5,309.1z" fill="#000000"/>
		<path id="Path_4068" class="st3" d="M117.4,309.1c5.6,1.2,12.1,3.2,31.3-9.2s27.2-30.1,26-34.6c-0.5-1.3-1.3-2.4-2.4-3.3    c-2.9,0-9.6,0.5-13,3.9c-4.4,4.4-2.7,7.4-10.3,12.1c-7.1,4.4-15.3,7.7-21.4,10.3c-2.3,2.7-4.9,5.1-7.9,7.1    C110.9,301.1,111.8,307.9,117.4,309.1z" fill="#000000"/>
		<g>
			<defs fill="#000000">
				<path id="SVGID_00000067203828882689056380000002018610046056010133_" d="M117.4,309.1c5.6,1.2,12.1,3.2,31.3-9.2      s27.2-30.1,26-34.6c-0.5-1.3-1.3-2.4-2.4-3.3c-2.9,0-9.6,0.5-13,3.9c-4.4,4.4-2.7,7.4-10.3,12.1c-7.1,4.4-15.3,7.7-21.4,10.3      c-2.3,2.7-4.9,5.1-7.9,7.1C110.9,301.1,111.8,307.9,117.4,309.1z" fill="#000000"/>
			</defs>
			<clipPath id="SVGID_00000152262278520471583000000002105133819881263254_" fill="#000000">
				<use xlink:href="#SVGID_00000067203828882689056380000002018610046056010133_" style="overflow:visible;" fill="#000000"/>
			</clipPath>
			
				<g id="Group_942" transform="translate(198.953 262.115)" style="clip-path:url(#SVGID_00000152262278520471583000000002105133819881263254_);">
				<path id="Path_4069" class="st0" d="M-81.5,47c5.6,1.2,12.1,3.2,31.3-9.2S-23,7.7-24.2,3.3C-24.7,2-25.5,0.9-26.6,0      c-2.9,0-9.6,0.5-13,3.9C-44,8.3-42.2,11.2-49.9,16c-7.1,4.4-15.3,7.7-21.4,10.3c-2.3,2.7-4.9,5.1-7.9,7.1      C-88,39-87.1,45.8-81.5,47z" fill="#000000"/>
				<path id="Path_4070" class="st4" d="M-81.5,47c5.6,1.2,12.1,3.2,31.3-9.2S-23,7.7-24.2,3.3C-24.7,2-25.5,0.9-26.6,0      c-2.9,0-9.6,0.5-13,3.9C-44,8.3-42.2,11.2-49.9,16c-7.1,4.4-15.3,7.7-21.4,10.3c-2.3,2.7-4.9,5.1-7.9,7.1      C-88,39-87.1,45.8-81.5,47z" fill="#000000"/>
			</g>
		</g>
		<path id="Path_4072" class="st2" d="M117.4,309.1c5.6,1.2,12.1,3.2,31.3-9.2s27.2-30.1,26-34.6c-0.5-1.3-1.3-2.4-2.4-3.3    c-2.9,0-9.6,0.5-13,3.9c-4.4,4.4-2.7,7.4-10.3,12.1c-7.1,4.4-15.3,7.7-21.4,10.3c-2.3,2.7-4.9,5.1-7.9,7.1    C110.9,301.1,111.8,307.9,117.4,309.1z" fill="#000000"/>
		<path id="Path_4073" class="st15" d="M114,301.3c-1.9,3.7-0.3,7,3.4,7.8c5.6,1.2,12.3,3.2,31.3-9.2s27-29.8,26-34.4    c-2.6-1.5-5.9-1.3-8.3,0.5c-7.4,4.7-4.7,10.6-14.8,17.4s-25.7,9.7-33.4,14.2C116.7,298.6,115.2,299.8,114,301.3z" fill="#000000"/>
		<g>
			<defs fill="#000000">
				<path id="SVGID_00000087377152118929996260000000447325812863253128_" d="M114,301.3c-1.9,3.7-0.3,7,3.4,7.8      c5.6,1.2,12.3,3.2,31.3-9.2s27-29.8,26-34.4c-2.6-1.5-5.9-1.3-8.3,0.5c-7.4,4.7-4.7,10.6-14.8,17.4s-25.7,9.7-33.4,14.2      C116.7,298.6,115.2,299.8,114,301.3z" fill="#000000"/>
			</defs>
			<clipPath id="SVGID_00000040534388545339087580000002994772285036877968_" fill="#000000">
				<use xlink:href="#SVGID_00000087377152118929996260000000447325812863253128_" style="overflow:visible;" fill="#000000"/>
			</clipPath>
			
				<g id="Group_943" transform="translate(198.98 264.497)" style="clip-path:url(#SVGID_00000040534388545339087580000002994772285036877968_);">
				<path id="Path_4074" class="st17" d="M-85,36.8c-1.9,3.7-0.3,7,3.4,7.8c5.6,1.2,12.3,3.2,31.3-9.2s27-29.8,26-34.4      c-2.6-1.5-5.9-1.3-8.3,0.5c-7.4,4.7-4.7,10.6-14.8,17.4S-73,28.7-80.7,33.1C-82.3,34.1-83.8,35.3-85,36.8z" fill="#000000"/>
			</g>
		</g>
		<path id="Path_4076" class="st2" d="M114,301.3c-1.9,3.7-0.3,7,3.4,7.8c5.6,1.2,12.3,3.2,31.3-9.2s27-29.8,26-34.4    c-2.6-1.5-5.9-1.3-8.3,0.5c-7.4,4.7-4.7,10.6-14.8,17.4s-25.7,9.7-33.4,14.2C116.7,298.6,115.2,299.8,114,301.3z" fill="#000000"/>
		<path id="Path_4077" class="st12" d="M266.7,244.7c0,0-4.9-0.8-3.2,5.7c1.6,6.5,3.6,2.4,3.6,2.4l2.4,3.2c0,0-2,5.7-6.1,2    c-4.1-3.6-5.3-13.3-4.5-18.6c0.8-5.3,6.5,1.6,6.5,1.6L266.7,244.7z" fill="#000000"/>
		<path id="Path_4078" class="st12" d="M264,236.4h29.4c0,0,1.2,25.4-5.9,30.7c-3.3,2.5-14.3,2.5-17.6,0    C262.7,261.8,264,236.4,264,236.4z" fill="#000000"/>
		<path id="Path_4079" class="st2" d="M287.2,199.4c0,3.2,3,3.2,3,6.4s-3,3.2-3,6.4s3,3.2,3,6.4s-3,3.2-3,6.4s3,3.2,3,6.4" fill="#000000"/>
		<path id="Path_4080" class="st2" d="M277,207.1c0,2.4,3,2.4,3,4.9s-3,2.4-3,4.9s3,2.4,3,4.9s-3,2.4-3,4.9s3,2.5,3,4.9" fill="#000000"/>
		<path id="Path_4081" class="st2" d="M265.9,199.4c0,3.2,3,3.2,3,6.4s-3,3.2-3,6.4s3,3.2,3,6.4s-3,3.2-3,6.4s3,3.2,3,6.4" fill="#000000"/>
		<path id="Path_4082" class="st12" d="M278.7,235c8.1,0,14.7,0.6,14.7,1.3s-6.6,1.3-14.7,1.3s-14.7-0.6-14.7-1.3    C264,235.6,270.5,235,278.7,235z" fill="#000000"/>
		<path id="Path_4083" class="st3" d="M227.2,59.4c-3.6,2.4-7.3,4.5-11.1,6.5c0,0,3.3,2.1,4.2,3.9s0.5,8.1-1,15.4s2.2,19.5,2.9,21.3    s8.1-6,9.5-10.5s2.7-18,3.2-22.7s2-19.6,2-19.6C236.1,52,232.4,55.9,227.2,59.4z" fill="#000000"/>
		<g>
			<defs fill="#000000">
				<path id="SVGID_00000047022235263243417480000016493337186966098104_" d="M227.2,59.4c-3.6,2.4-7.3,4.5-11.1,6.5      c0,0,3.3,2.1,4.2,3.9s0.5,8.1-1,15.4s2.2,19.5,2.9,21.3s8.1-6,9.5-10.5s2.7-18,3.2-22.7s2-19.6,2-19.6      C236.1,52,232.4,55.9,227.2,59.4z" fill="#000000"/>
			</defs>
			<clipPath id="SVGID_00000133519676242150637010000007744765749243581100_" fill="#000000">
				<use xlink:href="#SVGID_00000047022235263243417480000016493337186966098104_" style="overflow:visible;" fill="#000000"/>
			</clipPath>
			
				<g id="Group_944" transform="translate(136.925 53.194)" style="clip-path:url(#SVGID_00000133519676242150637010000007744765749243581100_);">
				<path id="Path_4084" class="st0" d="M92.7,21.5c0,0,1.5,16.1,0.1,25c0.8-1.1,1.4-2.4,1.9-3.7c1.4-4.5,2.7-18,3.2-22.7      s2-19.6,2-19.6c-0.7-1.6-4.4,2.4-9.7,5.9c-2.9,1.9-5.9,3.7-8.1,4.9L81,13.5L92.7,21.5z" fill="#000000"/>
				<path id="Path_4085" class="st4" d="M92.7,21.5c0,0,1.5,16.1,0.1,25c0.8-1.1,1.4-2.4,1.9-3.7c1.4-4.5,2.7-18,3.2-22.7      s2-19.6,2-19.6c-0.7-1.6-4.4,2.4-9.7,5.9c-2.9,1.9-5.9,3.7-8.1,4.9L81,13.5L92.7,21.5z" fill="#000000"/>
			</g>
		</g>
		<path id="Path_4087" class="st2" d="M227.2,59.4c-3.6,2.4-7.3,4.5-11.1,6.5c0,0,3.3,2.1,4.2,3.9s0.5,8.1-1,15.4s2.2,19.5,2.9,21.3    s8.1-6,9.5-10.5s2.7-18,3.2-22.7s2-19.6,2-19.6C236.1,52,232.4,55.9,227.2,59.4z" fill="#000000"/>
		<path id="Path_4088" class="st3" d="M241.1,48.1c1.7-4.8,4.1-12.9,2-18.7s-14-10.6-19.9-10s-9.5,0.7-12.9,7.7s-7.3,33.9-5.8,37.3    s11.4,3.6,18,1s15-9.7,15-9.7C238.9,53.3,240.1,50.8,241.1,48.1z" fill="#000000"/>
		<g>
			<defs fill="#000000">
				<path id="SVGID_00000036226725643006367410000010995198188787730835_" d="M241.1,48.1c1.7-4.8,4.1-12.9,2-18.7s-14-10.6-19.9-10      s-9.5,0.7-12.9,7.7s-7.3,33.9-5.8,37.3s11.4,3.6,18,1s15-9.7,15-9.7C238.9,53.3,240.1,50.8,241.1,48.1z" fill="#000000"/>
			</defs>
			<clipPath id="SVGID_00000121970037292506993040000003279564282071498904_" fill="#000000">
				<use xlink:href="#SVGID_00000036226725643006367410000010995198188787730835_" style="overflow:visible;" fill="#000000"/>
			</clipPath>
			
				<g id="Group_945" transform="translate(129.895 19.365)" style="clip-path:url(#SVGID_00000121970037292506993040000003279564282071498904_);">
				<path id="Path_4089" class="st0" d="M78.3,47.4c4.8,0.8,9.7,0.4,14.2-1.4c6.5-2.6,15-9.7,15-9.7c1.5-2.4,2.7-4.9,3.7-7.6      c1.7-4.8,4.1-12.9,2-18.7S99.2-0.5,93.3,0c-3.4,0.3-6,0.5-8.3,1.9c3.4,1.3,11,4.5,11,7.4c0,3.7-0.8,17.8-3.8,26.7      C90.2,42,83,45.6,78.3,47.4z" fill="#000000"/>
				<path id="Path_4090" class="st4" d="M78.3,47.4c4.8,0.8,9.7,0.4,14.2-1.4c6.5-2.6,15-9.7,15-9.7c1.5-2.4,2.7-4.9,3.7-7.6      c1.7-4.8,4.1-12.9,2-18.7S99.2-0.5,93.3,0c-3.4,0.3-6,0.5-8.3,1.9c3.4,1.3,11,4.5,11,7.4c0,3.7-0.8,17.8-3.8,26.7      C90.2,42,83,45.6,78.3,47.4z" fill="#000000"/>
			</g>
		</g>
		<path id="Path_4092" class="st2" d="M241.1,48.1c1.7-4.8,4.1-12.9,2-18.7s-14-10.6-19.9-10s-9.5,0.7-12.9,7.7s-7.3,33.9-5.8,37.3    s11.4,3.6,18,1s15-9.7,15-9.7C238.9,53.3,240.1,50.8,241.1,48.1z" fill="#000000"/>
		<path id="Path_4093" class="st2" d="M214.9,32.3c2.7,0.1,4.9,3,4.7,6.4s-2.5,6-5.2,5.9s-4.9-3-4.7-6.4    C209.8,34.8,212.1,32.2,214.9,32.3z" fill="#000000"/>
		<path id="Path_4094" class="st2" d="M205.9,30.8c1.5,0.1,2.6,2.9,2.5,6.3s-1.5,6.1-2.9,6s-2.6-2.9-2.4-6.3    C203.1,33.5,204.4,30.7,205.9,30.8z" fill="#000000"/>
		<path id="Path_4095" class="st12" d="M208,46c0,0-6.6-2.5-7.5-4.9s8.8-4.2,8.8-4.2" fill="#000000"/>
		<path id="Path_4096" class="st2" d="M208.2,35.4c1.5-0.7,1.6,0.4,1.6,0.4" fill="#000000"/>
		<line id="Line_153" class="st2" x1="237.6" y1="46.1" x2="219.9" y2="39.1" fill="#000000"/>
		<path id="Path_4097" class="st26" d="M215.2,30.7c1.9-0.1,3.7,0.9,4.4,2.7" fill="#000000"/>
		<line id="Line_154" class="st26" x1="210.6" y1="31.8" x2="207.9" y2="30.8" fill="#000000"/>
		<path id="Path_4098" class="st2" d="M210.7,51.8c2-2.1,5.6-1.2,5.6-1.2" fill="#000000"/>
		<path id="Path_4099" class="st15" d="M215.1,36.8c0.4,0.1,0.7,1.1,0.5,2.2s-0.6,2.1-1.1,2s-0.6-1.1-0.5-2.3    C214.2,37.6,214.6,36.7,215.1,36.8z" fill="#000000"/>
		<path id="Path_4100" class="st7" d="M244,50.3c0,0,1.3-1.2,4.3-4.5c4.1-4.4,5.9-10.4,5-16.3c-1.3-7.2-8.4-8.8-8.9-9.9    s-0.6-9.6-5.9-12.6s-11.6,0.4-14.6,0s-8.2-6.6-15.2-7.1s-9.9,9.1-7.8,14.4s11.7,9.2,16.9,8.9s16.6,2.2,19.1,4.6s-7.4-0.3-10.1,2.7    s2.1,5.2,4.6,7.9s0.1,4.6-1.5,6.6s0.7,3.7,4,3.5s2.1-2.5,2.1-2.5L244,50.3z" fill="#000000"/>
		<path id="Path_4101" class="st27" d="M250.3,36.2c0.6-1,0.8-2,0.8-3.1" fill="#000000"/>
		<path id="Path_4102" class="st27" d="M249.9,30.1c-1.1-1.3-2.5-2.3-4.1-2.9c-8-3.5-22.8-4.3-29.6-7.3s-5.9-11.3,0.7-11.3    s4,5.6,4,5.6" fill="#000000"/>
		<path id="Path_4103" class="st27" d="M246.5,43.9c0,0,1.4-3-5.2-6.1c-3.1-1.4-6.2-2.6-8.5-3.5" fill="#000000"/>
		<path id="Path_4104" class="st27" d="M230,33.4c-1-0.3-1.6-0.5-1.6-0.5" fill="#000000"/>
		<path id="Path_4105" class="st3" d="M233.6,54.5c0.5,1.3,5.1,6.4,7.6,3.6s5.5-10.6,1.5-12.8s-7.8,3.3-7.8,3.3" fill="#000000"/>
		<g>
			<defs fill="#000000">
				<path id="SVGID_00000069355738276811521920000010310959016895904899_" d="M233.6,54.5c0.5,1.3,5.1,6.4,7.6,3.6      s5.5-10.6,1.5-12.8s-7.8,3.3-7.8,3.3" fill="#000000"/>
			</defs>
			<clipPath id="SVGID_00000150074980863703794080000011512486786922191266_" fill="#000000">
				<use xlink:href="#SVGID_00000069355738276811521920000010310959016895904899_" style="overflow:visible;" fill="#000000"/>
			</clipPath>
			
				<g id="Group_946" transform="translate(129.158 44.851)" style="clip-path:url(#SVGID_00000150074980863703794080000011512486786922191266_);">
				<path id="Path_4106" class="st0" d="M104.4,9.7c0.5,1.3,5.1,6.4,7.6,3.6s5.5-10.6,1.5-12.8s-7.8,3.3-7.8,3.3" fill="#000000"/>
				<path id="Path_4107" class="st4" d="M104.4,9.7c0.5,1.3,5.1,6.4,7.6,3.6s5.5-10.6,1.5-12.8s-7.8,3.3-7.8,3.3" fill="#000000"/>
			</g>
		</g>
		<path id="Path_4109" class="st2" d="M233.6,54.5c0.5,1.3,5.1,6.4,7.6,3.6s5.5-10.6,1.5-12.8s-7.8,3.3-7.8,3.3" fill="#000000"/>
		<path id="Rectangle_2550" class="st12" d="M373.8,48.8v63.8c0,2.8-2.3,5.1-5.1,5.1h-86.5c-2.8,0-5.1-2.3-5.1-5.1V48.8    c0-2.8,2.3-5.1,5.1-5.1h86.5C371.5,43.6,373.8,45.9,373.8,48.8z" fill="#000000"/>
		<path id="Path_4110" class="st12" d="M278.9,83.9l-56.7,27.8l56.7-14.8" fill="#000000"/>
		<rect id="Rectangle_2551" x="343.2" y="50.8" class="st29" width="22.8" height="59.8" fill="#000000"/>
		<rect id="Rectangle_2552" x="282" y="50.8" class="st29" width="2.8" height="59.8" fill="#000000"/>
		<rect id="Rectangle_2553" x="282" y="78.1" class="st7" width="2.8" height="5.1" fill="#000000"/>
		<line id="Line_155" class="st2" x1="291.2" y1="52.2" x2="336.1" y2="52.2" fill="#000000"/>
		<line id="Line_156" class="st2" x1="291.2" y1="58.6" x2="336.1" y2="58.6" fill="#000000"/>
		<line id="Line_157" class="st2" x1="291.2" y1="65" x2="336.1" y2="65" fill="#000000"/>
		<line id="Line_158" class="st2" x1="291.2" y1="71.4" x2="336.1" y2="71.4" fill="#000000"/>
		<line id="Line_159" class="st2" x1="291.2" y1="87.1" x2="336.1" y2="87.1" fill="#000000"/>
		<line id="Line_160" class="st2" x1="291.2" y1="92.7" x2="336.1" y2="92.7" fill="#000000"/>
		<line id="Line_161" class="st2" x1="291.2" y1="98.4" x2="336.1" y2="98.4" fill="#000000"/>
		<line id="Line_162" class="st2" x1="291.2" y1="110.3" x2="336.1" y2="110.3" fill="#000000"/>
		<line id="Line_163" class="st2" x1="343.2" y1="50.8" x2="366" y2="110.5" fill="#000000"/>
	</g>
	<g id="freepik--Plants--inject-289" transform="translate(418.658 308.144)">
		<path id="Path_4111" class="st30" d="M-240,6.9c0-0.1,0-0.2,0.1-0.3c0.3-1.9-0.9-3.8-2.9-4.1c-2.9-0.4-6.5,3.5-7.6,5.9    c-0.1,0.2-1.2,3.5-1.2,3.5s5.2,0.1,7.3-0.8C-242.5,10.4-240.4,8.9-240,6.9z" fill="#000000"/>
		<path id="Path_4112" class="st30" d="M-312.1-6.4c-0.2,0-0.3,0.1-0.5,0.1c-1.9,0.5-3,2.5-2.4,4.4c0.4,2.1,2.4,3.6,4.3,4.4s6,1,7,1    c0.6,0.7,1.2,1.4,1.8,2.2c1.1,1.4,2.3,3,3.5,4.9l1,1.6c-0.7-0.7-1.8-1.8-1.9-1.9c-2.1-1.6-7-3.6-9.5-2c-0.1,0.1-0.1,0.1-0.2,0.2    c-1.5,1.3-1.7,3.5-0.4,5c1.3,1.6,3.8,2.1,5.8,2s5.9-2,6.7-2.4c0.7,1.2,1.4,2.4,2.1,3.7c1.2,2.4,2.3,4.8,3.1,7.4    c0.1,0.1,0.1,0.3,0.1,0.4c-0.3-0.4-2.1-2.7-2.3-2.9c-1.9-1.8-6.6-4.3-9.2-3c-0.1,0-0.1,0.1-0.2,0.1c-1.6,1.1-2.1,3.3-1,4.9    c1.1,1.7,3.6,2.5,5.6,2.6c2.2,0.2,6.9-1.6,7.1-1.7c0.7,2.6,1.3,5.2,1.7,7.8c0.3,1.9,0.5,3.9,0.7,5.9c-0.4-0.6-2.1-2.7-2.3-2.8    c-1.9-1.8-6.6-4.3-9.2-3c-0.1,0-0.1,0.1-0.2,0.1c-1.6,1.1-2.1,3.3-1,4.9c1.1,1.7,3.6,2.5,5.6,2.6c2.2,0.2,6.7-1.5,7.1-1.7l0.3,2.7    c0.3,3,0.6,5.9,0.9,8.9c0.1,1,0.3,2,0.4,3c-0.6-0.8-1.8-2.3-1.9-2.4c-1.9-1.8-6.6-4.3-9.2-3c-0.1,0-0.1,0.1-0.2,0.1    c-1.6,1.1-2.1,3.3-1,4.9c1.1,1.7,3.6,2.5,5.6,2.6s5.8-1.2,6.8-1.6c0.3,1.7,0.6,3.3,1,4.9c0.2,0.7,0.3,1.4,0.5,2s0.4,1.3,0.6,1.9    c0.4,1.3,0.9,2.6,1.3,3.8c0.2,0.6,0.4,1.2,0.7,1.8c-0.5-0.9-1.4-2.4-1.5-2.5c-1.5-2.1-5.8-5.3-8.6-4.4c-0.1,0-0.2,0.1-0.3,0.1    c-1.8,0.8-2.5,3-1.7,4.7c0.9,1.9,3.2,3,5.1,3.4c2.1,0.5,6.7-0.4,7.2-0.6c0.5,1.5,1.1,2.9,1.6,4.2c1.7,4.1,3.2,7.5,4.4,9.9    c0.1,0.1,0.1,0.2,0.2,0.4h-8.3l2.9,55.6c0.2,4.2,3.7,7.5,7.9,7.5l0,0c4.2,0,7.7-3.3,8-7.5l2.8-55.6h-8.9c0.1-0.4,0.1-0.8,0.1-1.3    c0.3-2.6,0.8-6.3,1.5-10.6c0.2-1.3,0.5-2.6,0.7-4c0.6,0,5.2,0.6,7.2,0c1.9-0.6,4.1-1.8,4.8-3.8c0.1-0.1,0.1-0.3,0.1-0.4    c0.5-1.8-0.6-3.8-2.4-4.3c-2.8-0.7-6.9,2.8-8.3,5c-0.1,0.1-1,1.9-1.4,2.9c0.2-0.8,0.3-1.6,0.5-2.5c0.3-1.2,0.6-2.5,0.9-3.8    c0.2-0.6,0.4-1.3,0.6-2s0.4-1.3,0.6-1.9c0.3-1,0.7-1.9,1.1-2.9c1.2,0.3,4.9,1.3,6.8,1s4.3-1.2,5.3-3c0-0.1,0.1-0.2,0.1-0.2    c0.8-1.8,0.1-3.9-1.7-4.7c-2.7-1.1-7.2,1.7-8.9,3.7c-0.1,0.1-0.4,0.5-0.7,1.1c0.4-0.9,0.7-1.9,1.2-2.8c1.2-2.6,2.6-5.3,3.9-8    c0.3-0.6,0.6-1.1,0.8-1.7c1.1,0.3,5,1.4,7,1.1s4.3-1.2,5.3-3c0-0.1,0.1-0.2,0.1-0.2c0.8-1.8,0.1-3.9-1.7-4.7    c-2.7-1.1-7.2,1.7-8.9,3.7c-0.3,0.4-0.6,0.8-0.9,1.2c0.7-1.5,1.4-2.9,2-4.4c1.1-2.5,2-5.1,2.8-7.7c0.4,0.1,5,1.4,7.2,1.1    c2-0.3,4.4-1.2,5.4-3c0-0.1,0.1-0.1,0.1-0.2c0.8-1.8,0.1-3.9-1.7-4.7c-2.7-1.1-7.2,1.7-8.9,3.7c-0.1,0.1-1.5,2.1-1.9,2.9    c0,0,0-0.1,0-0.1c0.7-2.6,1.1-5.3,1.3-8c0.2-2.4,0.2-4.8,0.2-7.2c0-2.2-0.2-4.3-0.4-6.1c-0.1-1-0.2-1.9-0.3-2.7l0,0    c0,0,1.1-3.4,1.1-3.6c0.4-2.6-0.3-7.9-2.9-9.2c-0.1-0.1-0.2-0.1-0.4-0.2c-1.8-0.6-3.8,0.3-4.4,2.1c-0.8,1.9,0.1,4.3,1.1,6    s4.4,4.1,5.3,4.7c0.1,0.9,0.2,1.8,0.3,2.8c0.1,1.8,0.3,3.9,0.3,6.1v1.9c-0.2-1.1-0.5-2.5-0.5-2.6c-0.8-2.5-3.8-6.9-6.8-6.9    c-0.1,0-0.2,0-0.3,0c-1.9,0.2-3.3,2-3.1,3.9c0.2,2.1,2,3.8,3.8,4.9s6,1.6,6.9,1.7c0,1.4-0.1,2.8-0.3,4.2c-0.3,2.7-0.8,5.3-1.5,7.8    c-0.1,0.1-0.1,0.3-0.2,0.4c0-0.5-0.3-3.5-0.3-3.7c-0.5-2.6-3.1-7.2-6-7.6c-0.1,0-0.2,0-0.2,0c-2,0-3.5,1.6-3.5,3.6    c0,2.1,1.6,4.1,3.2,5.2c1.8,1.3,6.7,2.5,6.9,2.5c-0.8,2.5-1.8,5-2.9,7.4c-0.8,1.8-1.7,3.6-2.6,5.4c0-0.7-0.3-3.4-0.3-3.6    c-0.5-2.6-3.1-7.2-6-7.6c-0.1,0-0.2,0-0.2,0c-2,0-3.5,1.6-3.5,3.6c0,2.1,1.6,4.1,3.2,5.2c1.7,1.3,6.4,2.4,6.8,2.5    c-0.4,0.8-0.8,1.6-1.3,2.4c-1.4,2.6-2.8,5.3-4.1,7.9c-0.4,0.9-0.9,1.8-1.3,2.8c-0.1-1-0.3-2.9-0.3-3.1c-0.5-2.6-3.1-7.2-6-7.6    c-0.1,0-0.2,0-0.4,0c-1.9,0-3.4,1.6-3.4,3.6c0,2.1,1.6,4,3.2,5.2s5.5,2.2,6.6,2.5c-0.7,1.5-1.3,3.1-1.9,4.6    c-0.2,0.7-0.5,1.4-0.7,2s-0.4,1.3-0.6,1.9c-0.4,1.3-0.7,2.6-1,3.9c-0.2,0.7-0.3,1.2-0.4,1.9c0.1-1.1,0.2-2.8,0.2-2.9    c-0.1-2.6-2-7.6-4.8-8.4c-0.1,0-0.2,0-0.2,0c-1.9-0.3-3.7,1.1-4,3c0,0.3,0,0.5,0,0.8c-1.2,2-1.8,4.3-1.8,6.6    c0,0.2,0.3,2.1,0.4,3.2c-0.3-0.8-0.6-1.5-0.9-2.4c-0.5-1.2-0.9-2.5-1.3-3.7c-0.2-0.6-0.4-1.3-0.6-1.9s-0.4-1.3-0.6-2    c-0.2-1-0.5-2-0.7-3c1.2-0.4,4.8-1.6,6.2-2.9s3-3.4,2.8-5.5c0-0.1,0-0.2,0-0.3c-0.3-1.9-2.1-3.3-4-3c-2.9,0.5-5.1,5.4-5.4,8v1.3    c-0.2-1-0.4-2-0.5-3c-0.4-2.9-0.8-5.8-1.1-8.8c-0.1-0.7-0.2-1.2-0.2-1.8c1-0.3,5-1.7,6.4-3s3-3.4,2.8-5.5c0-0.1,0-0.2,0-0.3    c-0.3-1.9-2.1-3.3-4-3c-2.9,0.5-5.1,5.4-5.4,8v1.5c-0.2-1.6-0.4-3.2-0.7-4.8c-0.5-2.7-1.1-5.4-1.9-8c0.4-0.1,4.9-1.5,6.6-3    c1.5-1.3,3-3.4,2.8-5.5c0-0.1,0-0.2,0-0.3c-0.3-1.9-2.1-3.3-4-3c-2.9,0.5-5.1,5.4-5.4,8c0,0.2,0,2.6,0,3.5c0,0,0-0.1,0-0.1    c-0.9-2.6-2-5-3.3-7.4c-1.2-2.1-2.4-4.2-3.8-6.1c-1.3-1.8-2.5-3.4-3.7-4.8c-0.6-0.8-1.2-1.4-1.8-2.1h0.1c0.1,0-1-3.4-1.1-3.6    C-305.7-2.7-309.1-6.7-312.1-6.4L-312.1-6.4z M-279.6,72.3c-0.5-1.2-1-2.4-1.6-3.7c2.1-1,4.1-2.2,5.9-3.8c1.3,0.7,2.7,1.3,4,1.9    c-0.3,1.5-0.7,3-0.9,4.4c-0.9,4.3-1.4,8-1.8,10.6c-0.1,0.6-0.1,1.1-0.2,1.5h-0.2l-0.6-1.3C-276.2,79.7-277.9,76.4-279.6,72.3    L-279.6,72.3z" fill="#000000"/>
		<path id="Path_4113" class="st30" d="M-291,7.6c1.1-1.7,2-4.1,1.3-6c0-0.1-0.1-0.1-0.1-0.2c-0.8-1.8-2.8-2.6-4.6-1.9    c-2.6,1.3-3.5,6.5-3.1,9.1c0,0.2,1,3.7,1,3.7C-296.6,12.3-292.3,9.6-291,7.6z" fill="#000000"/>
	</g>
</g>
</svg>